<?xml version="1.0" encoding="utf-8"?>
<!-- Generator: Adobe Illustrator 21.1.0, SVG Export Plug-In . SVG Version: 6.00 Build 0)  -->
<svg version="1.1" id="Layer_1" xmlns="http://www.w3.org/2000/svg" xmlns:xlink="http://www.w3.org/1999/xlink" x="0px" y="0px"
	 viewBox="0 0 595.3 201.6" style="enable-background:new 0 0 595.3 201.6;" xml:space="preserve">
<style type="text/css">
	.st0{opacity:0.17;}
	.st1{fill:#FFFFFF;}
	.st2{fill:#010202;}
</style>
<g>
	<path d="M106.5,174.5l-3.5-11.6H85.2l-3.5,11.6H70.5l17.2-48.9h12.6l17.3,48.9H106.5z M100.5,154.2c-3.3-10.5-5.1-16.4-5.5-17.8
		c-0.4-1.4-0.7-2.5-0.9-3.3c-0.7,2.8-2.8,9.9-6.3,21.1H100.5z"/>
	<path d="M157.3,174.5h-10.2v-21.8c0-2.7-0.5-4.7-1.4-6c-1-1.3-2.5-2-4.6-2c-2.8,0-4.9,0.9-6.2,2.8c-1.3,1.9-1.9,5-1.9,9.4v17.5
		h-10.2v-37.2h7.8l1.4,4.8h0.6c1.1-1.8,2.7-3.2,4.7-4.1s4.2-1.4,6.8-1.4c4.3,0,7.6,1.2,9.9,3.5c2.2,2.3,3.4,5.7,3.4,10.1V174.5z"/>
	<path d="M167.3,127.6c0-3.3,1.8-5,5.5-5c3.7,0,5.5,1.7,5.5,5c0,1.6-0.5,2.8-1.4,3.7c-0.9,0.9-2.3,1.3-4.1,1.3
		C169.2,132.6,167.3,131,167.3,127.6z M177.9,174.5h-10.2v-37.2h10.2V174.5z"/>
	<path d="M221.9,174.5h-10.2v-21.8c0-2.7-0.4-4.7-1.3-6c-0.9-1.3-2.3-2-4.2-2c-2.6,0-4.5,1-5.7,2.9c-1.2,1.9-1.8,5.1-1.8,9.4v17.5
		h-10.2v-37.2h7.8l1.4,4.8h0.6c1-1.7,2.4-3,4.3-4c1.9-1,4.1-1.4,6.5-1.4c5.6,0,9.3,1.8,11.3,5.5h0.9c1-1.7,2.5-3.1,4.4-4
		c1.9-1,4.1-1.4,6.6-1.4c4.2,0,7.4,1.1,9.6,3.2s3.2,5.6,3.2,10.4v24.3h-10.2v-21.8c0-2.7-0.4-4.7-1.3-6c-0.9-1.3-2.3-2-4.2-2
		c-2.5,0-4.3,0.9-5.6,2.7c-1.2,1.8-1.8,4.6-1.8,8.5V174.5z"/>
	<path d="M284.1,125.8h10.4L278,174.5h-11.3l-16.5-48.7h10.4l9.2,29c0.5,1.7,1,3.7,1.6,6c0.5,2.3,0.9,3.9,1,4.7
		c0.2-2,1.1-5.6,2.5-10.7L284.1,125.8z"/>
	<path d="M323.5,174.5l-2-5.1h-0.3c-1.7,2.2-3.5,3.6-5.3,4.5c-1.8,0.8-4.2,1.2-7.1,1.2c-3.6,0-6.4-1-8.4-3.1c-2.1-2-3.1-5-3.1-8.7
		c0-4,1.4-6.9,4.1-8.7s6.9-2.9,12.5-3.1l6.5-0.2v-1.6c0-3.8-1.9-5.7-5.8-5.7c-3,0-6.5,0.9-10.5,2.7l-3.4-6.9c4.3-2.2,9-3.4,14.3-3.4
		c5,0,8.8,1.1,11.5,3.3c2.7,2.2,4,5.5,4,9.9v24.8H323.5z M320.5,157.2l-3.9,0.1c-3,0.1-5.2,0.6-6.6,1.6c-1.4,1-2.2,2.5-2.2,4.5
		c0,2.9,1.6,4.3,4.9,4.3c2.4,0,4.2-0.7,5.6-2c1.4-1.4,2.1-3.2,2.1-5.4V157.2z"/>
	<path d="M367.5,174.5l-1.4-4.8h-0.5c-1.1,1.7-2.6,3.1-4.6,4c-2,0.9-4.3,1.4-6.8,1.4c-4.4,0-7.7-1.2-9.9-3.5
		c-2.2-2.3-3.3-5.7-3.3-10.1v-24.3h10.2V159c0,2.7,0.5,4.7,1.4,6c1,1.3,2.5,2,4.6,2c2.8,0,4.9-0.9,6.2-2.8c1.3-1.9,1.9-5,1.9-9.4
		v-17.5h10.2v37.2H367.5z"/>
	<path d="M396.1,174.5h-10.2v-51.8h10.2V174.5z"/>
	<path d="M422.4,167.1c1.8,0,3.9-0.4,6.4-1.2v7.6c-2.5,1.1-5.6,1.7-9.3,1.7c-4.1,0-7-1-8.9-3.1c-1.9-2.1-2.8-5.1-2.8-9.2v-18H403
		v-4.3l5.6-3.4l2.9-7.9h6.5v7.9h10.4v7.6H418v18c0,1.4,0.4,2.5,1.2,3.2C420,166.7,421.1,167.1,422.4,167.1z"/>
</g>
<g class="st0">
	<g>
		<path d="M186.7,112l-3.5-2c0-0.1,1.1-2,3.2-5.2l3.3,2.2C187.8,110.1,186.7,112,186.7,112z"/>
	</g>
	<g>
		<path d="M196.6,97.4l-3.2-2.4c2.4-3.2,4.9-6.3,7.4-9.4l3.1,2.6C201.4,91.2,198.9,94.3,196.6,97.4z M448.5,88.6
			c-2.9-2.7-5.9-5.3-8.8-7.8l2.6-3c3,2.5,6,5.2,8.9,7.9L448.5,88.6z M211.7,79.4l-2.9-2.7c2.7-2.9,5.6-5.8,8.4-8.5l2.8,2.9
			C217.1,73.8,214.3,76.6,211.7,79.4z M430.6,73.3c-3.1-2.5-6.2-4.9-9.3-7.2l2.4-3.2c3.1,2.3,6.3,4.7,9.5,7.3L430.6,73.3z
			 M228.6,63.3l-2.6-3.1c3.1-2.6,6.2-5.1,9.4-7.4l2.4,3.2C234.7,58.3,231.6,60.7,228.6,63.3z M411.7,59.4c-3.3-2.2-6.6-4.3-9.9-6.3
			l2.1-3.4c3.3,2,6.7,4.2,10.1,6.4L411.7,59.4z M247.5,49.4l-2.1-3.4c3.4-2.2,6.9-4.2,10.3-6.1l1.9,3.5
			C254.2,45.3,250.8,47.3,247.5,49.4z M391.6,47.2c-3.5-1.9-7-3.6-10.5-5.2l1.7-3.6c3.5,1.6,7.1,3.4,10.7,5.3L391.6,47.2z
			 M268.1,38.4l-1.6-3.7c3.7-1.6,7.5-3.1,11.2-4.3l1.3,3.8C275.3,35.4,271.7,36.8,268.1,38.4z M370.3,37.5
			c-3.7-1.4-7.4-2.7-11.1-3.8l1.2-3.8c3.8,1.1,7.6,2.4,11.3,3.9L370.3,37.5z M290.2,31l-0.9-3.9c3.9-0.9,7.9-1.7,11.8-2.2l0.6,4
			C297.8,29.3,293.9,30.1,290.2,31z M347.9,30.7c-3.8-0.8-7.7-1.5-11.5-2l0.5-4c3.9,0.5,7.9,1.2,11.8,2.1L347.9,30.7z M313.2,27.7
			l-0.2-4c4-0.2,8-0.2,12,0l-0.2,4C321,27.5,317,27.5,313.2,27.7z"/>
	</g>
	<g>
		<path d="M461.3,100.9c-1.4-1.4-2.8-2.8-4.3-4.2l2.8-2.9c1.4,1.4,2.9,2.8,4.3,4.2L461.3,100.9z"/>
	</g>
</g>
<g>
	<circle cx="470.5" cy="111" r="7.8"/>
</g>
<g>
	<circle cx="320.3" cy="25.5" r="7.8"/>
</g>
<g>
	<rect x="449.8" y="128" width="51.5" height="46.5"/>
</g>
<g>
	<circle class="st1" cx="475.5" cy="150.5" r="15.5"/>
</g>
<g>
	<circle class="st2" cx="475.5" cy="150.5" r="8"/>
</g>
<g>
	
		<rect x="481.5" y="136" transform="matrix(0.7861 -0.6181 0.6181 0.7861 17.2017 331.2813)" class="st1" width="11.5" height="9.5"/>
</g>
<g>
	
		<rect x="457" y="155.3" transform="matrix(0.7861 -0.6181 0.6181 0.7861 4.011437e-02 320.2482)" class="st1" width="11.5" height="9.5"/>
</g>
<g>
	
		<rect x="479.7" y="157.2" transform="matrix(0.6781 0.735 -0.735 0.6781 275.3085 -304.6827)" class="st1" width="11.5" height="9.5"/>
</g>
<g>
	
		<rect x="458.6" y="134.3" transform="matrix(0.6781 0.735 -0.735 0.6781 251.6496 -296.5156)" class="st1" width="11.5" height="9.5"/>
</g>
<g>
	<rect x="497.6" y="134.3" class="st2" width="6.9" height="9.5"/>
</g>
<g>
	<rect x="497.8" y="155.3" class="st2" width="6.9" height="9.5"/>
</g>
<g>
	<line class="st2" x1="495.4" y1="135" x2="523.8" y2="95.7"/>
	<rect x="485.3" y="113.3" transform="matrix(0.5857 -0.8105 0.8105 0.5857 117.635 460.8005)" width="48.5" height="4"/>
</g>
</svg>
